<svg width="78" height="78" viewBox="0 0 78 78" fill="none" xmlns="http://www.w3.org/2000/svg">
<circle cx="39" cy="39" r="39" fill="url(#paint0_linear)"/>
<path d="M49.7703 44.2377C48.3679 42.8532 46.6172 42.8532 45.2238 44.2377C44.1609 45.2917 43.0979 46.3457 42.0529 47.4175C41.767 47.7123 41.5259 47.7748 41.1775 47.5783C40.4897 47.2032 39.7573 46.8995 39.0963 46.4886C36.0147 44.5503 33.4333 42.0582 31.1467 39.2535C30.0123 37.8601 29.003 36.3684 28.2973 34.6892C28.1544 34.3498 28.1812 34.1265 28.4581 33.8496C29.521 32.8224 30.5572 31.7684 31.6022 30.7144C33.0582 29.2495 33.0582 27.5345 31.5933 26.0607C30.7626 25.2211 29.9319 24.3993 29.1012 23.5597C28.2437 22.7022 27.3952 21.8358 26.5287 20.9872C25.1264 19.6206 23.3757 19.6206 21.9823 20.9962C20.9104 22.0502 19.8832 23.131 18.7935 24.1671C17.7841 25.1228 17.275 26.2929 17.1678 27.6596C16.9981 29.8837 17.543 31.9827 18.3111 34.0282C19.8832 38.2621 22.277 42.0225 25.18 45.4703C29.1012 50.1329 33.7817 53.8219 39.2571 56.4837C41.7224 57.6806 44.277 58.6006 47.0549 58.7525C48.9664 58.8597 50.6278 58.3773 51.9587 56.8857C52.8697 55.8674 53.8969 54.9384 54.8616 53.9648C56.2908 52.5178 56.2997 50.7671 54.8795 49.338C53.1824 47.6319 51.4763 45.9348 49.7703 44.2377Z" fill="white"/>
<path d="M47.6639 35.4979C47.9497 36.3756 48.8013 36.9927 49.7111 36.8374C50.6217 36.6819 51.2433 35.8134 50.9859 34.9261C50.295 32.5444 49.0163 30.3874 47.2424 28.6062C45.3463 26.7101 43.0358 25.3929 40.4871 24.7402C39.5918 24.5109 38.7422 25.1587 38.6139 26.074C38.4857 26.9892 39.1289 27.8229 40.0161 28.0817C41.8455 28.6155 43.507 29.5959 44.8843 30.9732C46.1666 32.2555 47.1104 33.7982 47.6639 35.4979Z" fill="white"/>
<path d="M53.2185 22.7913C49.8107 19.3834 45.5932 17.1004 40.932 16.1283C40.0276 15.9397 39.1804 16.5834 39.0521 17.4984C38.9238 18.4138 39.5641 19.2531 40.4668 19.4521C44.4055 20.3202 47.9711 22.2768 50.8604 25.1583C53.5811 27.8791 55.4854 31.2258 56.4188 34.9134C56.6451 35.8076 57.5015 36.421 58.4107 36.2658C59.3214 36.1103 59.9387 35.2432 59.7206 34.3455C58.6585 29.9737 56.4303 26.011 53.2185 22.7913Z" fill="white"/>
<defs>
<linearGradient id="paint0_linear" x1="-6.67026e-07" y1="63.7" x2="100.1" y2="39" gradientUnits="userSpaceOnUse">
<stop stop-color="#52C600"/>
<stop offset="1" stop-color="#97FF13"/>
</linearGradient>
</defs>
</svg>
