<svg width="27" height="15" viewBox="0 0 27 15" fill="none" xmlns="http://www.w3.org/2000/svg">
<path fill-rule="evenodd" clip-rule="evenodd" d="M0.343289 0H13.1132H15.4712H22.8141C23.3675 0.00361559 23.9149 0.118827 24.4248 0.339046C24.9347 0.559266 25.3972 0.880179 25.7859 1.28343C26.1746 1.6867 26.4818 2.16438 26.6899 2.6892C26.8981 3.21403 27.0032 3.7757 26.9991 4.3421V7.10524C26.9992 7.72799 26.7596 8.32565 26.3322 8.76893C25.9048 9.21221 25.3241 9.46535 24.7157 9.47367H16.9705C16.8682 9.47367 16.77 9.51529 16.6977 9.58933C16.6254 9.66332 16.5847 9.76375 16.5847 9.86843V10.6579C16.5847 10.7626 16.6254 10.863 16.6977 10.937C16.77 11.011 16.8682 11.0527 16.9705 11.0527H22.3705C22.5751 11.0527 22.7713 10.9695 22.916 10.8214C23.0607 10.6734 23.1419 10.4726 23.1419 10.2631H26.2277C26.3316 10.2631 26.4345 10.2845 26.5302 10.3261C26.6258 10.3678 26.7123 10.4287 26.7844 10.5054C26.8564 10.5821 26.9126 10.6729 26.9494 10.7724C26.9864 10.8718 27.0032 10.9779 26.9991 11.0842V11.1316C27.0099 11.6287 26.9248 12.1232 26.7488 12.5867C26.5727 13.0502 26.3092 13.4737 25.9732 13.8329C25.6372 14.1921 25.2354 14.4801 24.7906 14.6803C24.3458 14.8806 23.8668 14.9892 23.381 15H15.4276C14.7115 15 14.0247 14.7089 13.5184 14.1907C13.1984 13.8633 12.9671 13.4621 12.8401 13.0263H8.52815C7.80077 13.0263 7.10327 12.7306 6.58891 12.2043C6.07461 11.678 5.78568 10.9641 5.78568 10.2198V9.82503C5.78568 9.73187 5.82185 9.64248 5.88623 9.57657C5.95061 9.51073 6.03792 9.47367 6.12895 9.47367H12.7276V8.28946H5.44246C5.08231 8.28946 4.7257 8.21683 4.39297 8.07583C4.06023 7.93477 3.75791 7.72805 3.50325 7.46745C3.24859 7.20678 3.04658 6.89741 2.90876 6.5569C2.77094 6.2164 2.70001 5.85144 2.70001 5.48287V5.08814C2.70001 4.99496 2.73617 4.9056 2.80055 4.83972C2.86493 4.77383 2.95225 4.73681 3.04329 4.73681H12.7276V3.55263H2.74245C2.38231 3.55263 2.02569 3.48003 1.69296 3.33899C1.36023 3.19795 1.05791 2.99122 0.803246 2.73061C0.548587 2.46999 0.346577 2.16059 0.208756 1.82008C0.0709345 1.47957 0 1.11462 0 0.74606V0.351322C0 0.305186 0.00888015 0.259495 0.026132 0.216872C0.0433839 0.174248 0.0686693 0.135523 0.100547 0.102901C0.132424 0.070278 0.170267 0.0443983 0.211917 0.026743C0.253566 0.00908779 0.298207 0 0.343289 0ZM16.6977 4.06299C16.6254 4.13702 16.5847 4.23742 16.5847 4.3421V5.13158C16.5847 5.23627 16.6254 5.33666 16.6977 5.4107C16.77 5.48472 16.8682 5.52631 16.9705 5.52631H23.1921C23.1921 5.11162 23.0327 4.71356 22.7484 4.41812C22.464 4.12268 22.0775 3.95359 21.6723 3.94737H16.9705C16.8682 3.94737 16.77 3.98896 16.6977 4.06299Z" fill="url(#paint0_linear)"/>
<defs>
<linearGradient id="paint0_linear" x1="0.984236" y1="0.703126" x2="46.5355" y2="11.2446" gradientUnits="userSpaceOnUse">
<stop stop-color="#52C600"/>
<stop offset="1" stop-color="#97FF13"/>
</linearGradient>
</defs>
</svg>
