<svg width="20" height="20" viewBox="0 0 20 20" fill="none" xmlns="http://www.w3.org/2000/svg">
<path fill-rule="evenodd" clip-rule="evenodd" d="M2 0C0.895431 0 0 0.895431 0 2V18C0 19.1046 0.895431 20 2 20H18C19.1046 20 20 19.1046 20 18V2C20 0.895431 19.1046 0 18 0H2ZM16.9149 4.42549L14.5651 15.7282C14.5098 15.995 14.1968 16.116 13.976 15.9555L10.7684 13.6267C10.5736 13.4853 10.3081 13.4928 10.1217 13.6448L8.34321 15.0945C8.13684 15.2633 7.8258 15.1692 7.74677 14.915L6.80318 11.8804C6.61943 11.2895 6.17247 10.8169 5.59269 10.6005L3.32141 9.75284C2.99732 9.63143 2.99455 9.17389 3.31771 9.04941L16.4114 3.9982C16.689 3.89086 16.9754 4.13402 16.9149 4.42549Z" fill="white"/>
<path fill-rule="evenodd" clip-rule="evenodd" d="M13.7831 6.46942L7.54772 10.3097C7.30873 10.4572 7.19624 10.7458 7.27334 11.016L7.9475 13.3848C7.99545 13.5527 8.23897 13.5355 8.26231 13.3621L8.43752 12.0631C8.47062 11.8185 8.58723 11.5931 8.76816 11.4248L13.914 6.64137C14.0104 6.55214 13.8951 6.40062 13.7831 6.46942Z" fill="white"/>
</svg>
