<svg width="20" height="20" viewBox="0 0 20 20" fill="none" xmlns="http://www.w3.org/2000/svg">
<path fill-rule="evenodd" clip-rule="evenodd" d="M4.43425 19.9999H15.5657C18.0147 19.9999 19.9999 18.0147 20 15.5658V4.43425C20 1.98523 18.0147 0 15.5658 0H4.43425C1.98523 0 0 1.98529 0 4.43425V15.5657C0 18.0147 1.98529 19.9999 4.43425 19.9999ZM8.89741 7.75559C8.8692 7.94371 8.76725 8.11276 8.61398 8.22534C8.548 8.2738 8.48364 8.32071 8.42561 8.36239C8.30912 8.44589 8.27911 8.60637 8.3574 8.7264C8.9345 9.61129 9.68948 10.3675 10.5732 10.9462C10.6337 10.9859 10.7077 10.9993 10.7783 10.9836C10.8488 10.9679 10.9101 10.9243 10.9481 10.8627L11.0345 10.7226C11.1366 10.5575 11.3019 10.4413 11.4916 10.4003C11.6812 10.3594 11.8794 10.3973 12.0405 10.5056L12.9622 11.1248C13.2006 11.285 13.2751 11.602 13.1329 11.8516L12.8435 12.3596C12.5861 12.8113 12.0359 13.0058 11.5511 12.8178C9.19407 11.9034 7.33545 10.022 6.45138 7.64954C6.29109 7.21943 6.42777 6.7357 6.78991 6.45364C6.93703 6.33908 7.09254 6.21706 7.23139 6.10777C7.34769 6.01626 7.49624 5.97582 7.64299 5.99532C7.78973 6.01483 7.92231 6.09274 8.01072 6.21153L8.76396 7.22353C8.87753 7.37599 8.92562 7.56753 8.89741 7.75559ZM13.443 9.53182C13.2908 9.53182 13.1674 9.40837 13.1674 9.25622C13.1674 7.44209 11.6915 5.96618 9.87741 5.96618C9.72519 5.96618 9.60181 5.84274 9.60181 5.69058C9.60181 5.53837 9.72526 5.41498 9.87741 5.41498C11.9955 5.41498 13.7186 7.13822 13.7186 9.25622C13.7186 9.40844 13.5953 9.53182 13.443 9.53182ZM12.304 9.25606C12.304 9.40821 12.4274 9.53166 12.5796 9.53166C12.7318 9.53166 12.8552 9.40827 12.8552 9.25612C12.8552 7.61427 11.5195 6.27852 9.87765 6.27852C9.7255 6.27852 9.60205 6.4019 9.60205 6.55412C9.60205 6.70627 9.72544 6.82972 9.87765 6.82972C11.2155 6.82972 12.304 7.91813 12.304 9.25606ZM11.7311 9.53171C11.5788 9.53171 11.4555 9.40826 11.4555 9.25611C11.4555 8.38601 10.7475 7.67806 9.87741 7.67806C9.72519 7.67806 9.60181 7.55461 9.60181 7.40246C9.60181 7.25025 9.72526 7.12686 9.87741 7.12686C11.0515 7.12686 12.0067 8.08208 12.0067 9.25617C12.0067 9.40832 11.8833 9.53171 11.7311 9.53171ZM11.8468 2.89506C14.6075 2.89506 16.8455 5.13302 16.8455 7.89373H16.8456V10.4222C16.8456 13.1829 14.6076 15.4208 11.8469 15.4208H8.8394L7.33814 17.1514C7.24197 17.2622 7.10261 17.3228 6.96059 17.3228C6.9025 17.3228 6.84385 17.3127 6.78756 17.2916C6.59379 17.2193 6.46357 17.0317 6.46357 16.8249V15.0794C4.52953 14.3374 3.15601 12.4642 3.15601 10.269V8.04682C3.15601 5.20155 5.4625 2.89506 8.30777 2.89506H11.8468ZM11.8469 14.2571C13.9615 14.2571 15.6818 12.5367 15.6818 10.4222H15.6818V7.89373C15.6818 5.77915 13.9615 4.05883 11.8469 4.05883H8.30783C6.10882 4.05883 4.31978 5.84787 4.31978 8.04688V10.2691C4.31978 11.9928 5.41926 13.4643 6.95357 14.02V16.5818C6.95357 16.6229 6.97923 16.6597 7.01781 16.674C7.05639 16.6882 7.09982 16.6771 7.12666 16.6459L9.18091 14.2571H11.8469Z" fill="white"/>
</svg>
